<?xml version="1.0" standalone="no"?>
<!DOCTYPE svg PUBLIC "-//W3C//DTD SVG 20010904//EN"
 "http://www.w3.org/TR/2001/REC-SVG-20010904/DTD/svg10.dtd">
<svg version="1.0" xmlns="http://www.w3.org/2000/svg"
 width="512.000000pt" height="512.000000pt" viewBox="0 0 512.000000 512.000000"
 preserveAspectRatio="xMidYMid meet">
<metadata>
Created by potrace 1.11, written by Peter Selinger 2001-2013
</metadata>
<g transform="translate(0.000000,512.000000) scale(0.100000,-0.100000)"
fill="#000000" stroke="none">
<path d="M286 4589 c-139 -47 -246 -164 -276 -302 -14 -66 -14 -3373 0 -3448
25 -132 122 -246 260 -305 44 -19 101 -19 2260 -22 1524 -1 2231 1 2265 8 132
28 242 123 301 260 19 44 19 89 22 1761 2 1533 0 1721 -14 1768 -21 71 -48
117 -97 170 -53 55 -100 85 -174 110 -57 20 -83 20 -2273 20 -2190 0 -2216 -1
-2274 -20z"/>
</g>
</svg>
