<svg width="44" height="35" viewBox="0 0 44 35" fill="none" xmlns="http://www.w3.org/2000/svg">
<path d="M43.61 7.89719V31.4132C43.61 33.3515 42.0385 34.9231 40.1001 34.9231H3.50986C1.57154 34.9231 0 33.3515 0 31.4132V7.89719H43.61Z" fill="#F5F5F5"/>
<path d="M43.61 9.65211V7.89718L21.805 7.01971L0 7.89718V9.65211V31.4132C0 33.3516 1.57154 34.9231 3.50986 34.9231H5.26479C3.32647 34.9231 1.75493 33.3516 1.75493 31.4132V9.65211H43.61Z" fill="#E6E6E6"/>
<path d="M43.61 3.50986V7.89718H0V3.50986C0 1.57154 1.57154 0 3.50986 0H40.1001C42.0385 0 43.61 1.57154 43.61 3.50986Z" fill="#048B1F"/>
<path d="M41.6357 3.9486C41.6357 2.86002 40.7501 1.9743 39.6614 1.9743H20.9714C20.4111 1.9743 19.9051 2.2092 19.5454 2.58528C19.1271 3.00269 19.3235 2.80632 18.9061 3.2246C18.53 3.58428 18.2951 4.09031 18.2951 4.65057C18.2951 5.73915 19.1808 6.62487 20.2694 6.62487H38.9594C39.5197 6.62487 40.0257 6.38997 40.3854 6.01389C40.8037 5.59648 40.6073 5.79285 41.0247 5.37457C41.4008 5.01489 41.6357 4.50886 41.6357 3.9486Z" fill="#048B1F"/>
<path d="M5.9887 3.92666C5.9887 2.83808 5.10307 1.95236 4.0144 1.95236C3.45414 1.95236 2.94811 2.18726 2.58843 2.56334C2.17015 2.98075 2.36652 2.78437 1.94911 3.20266C1.57303 3.56233 1.33813 4.06837 1.33813 4.62863C1.33813 5.71721 2.22376 6.60293 3.31243 6.60293C3.87269 6.60293 4.37873 6.36803 4.7384 5.99195C5.15669 5.57454 4.96031 5.77091 5.37772 5.35263C5.7538 4.99295 5.9887 4.48692 5.9887 3.92666Z" fill="#048B1F"/>
<path d="M11.6264 3.92666C11.6264 2.83808 10.7408 1.95236 9.6521 1.95236C9.09184 1.95236 8.5858 2.18726 8.22613 2.56334C7.80784 2.98075 8.00422 2.78437 7.58681 3.20266C7.21073 3.56233 6.97583 4.06837 6.97583 4.62863C6.97583 5.71721 7.86146 6.60293 8.95013 6.60293C9.51039 6.60293 10.0164 6.36803 10.3761 5.99195C10.7944 5.57454 10.598 5.77091 11.0154 5.35263C11.3915 4.99295 11.6264 4.48692 11.6264 3.92666Z" fill="#048B1F"/>
<path d="M17.2422 3.92666C17.2422 2.83808 16.3566 1.95236 15.2679 1.95236C14.7076 1.95236 14.2016 2.18726 13.8419 2.56334C13.4236 2.98075 13.62 2.78437 13.2026 3.20266C12.8265 3.56233 12.5916 4.06837 12.5916 4.62863C12.5916 5.71721 13.4772 6.60293 14.5659 6.60293C15.1262 6.60293 15.6322 6.36803 15.9919 5.99195C16.4102 5.57454 16.2138 5.77091 16.6312 5.35263C17.0073 4.99295 17.2422 4.48692 17.2422 3.92666Z" fill="#048B1F"/>
<path d="M4.0144 5.90095C2.92573 5.90095 2.0401 5.01524 2.0401 3.92665C2.0401 2.83807 2.92573 1.95236 4.0144 1.95236C5.10307 1.95236 5.98869 2.83807 5.98869 3.92665C5.98869 5.01524 5.10307 5.90095 4.0144 5.90095Z" fill="#FD646F"/>
<path d="M9.65212 5.92286C8.56345 5.92286 7.67783 5.03715 7.67783 3.94857C7.67783 2.85999 8.56345 1.97427 9.65212 1.97427C10.7408 1.97427 11.6264 2.85999 11.6264 3.94857C11.6264 5.03715 10.7408 5.92286 9.65212 5.92286Z" fill="#FFC682"/>
<path d="M15.2679 5.92286C14.1792 5.92286 13.2936 5.03715 13.2936 3.94857C13.2936 2.85999 14.1792 1.97427 15.2679 1.97427C16.3565 1.97427 17.2422 2.85999 17.2422 3.94857C17.2422 5.03715 16.3565 5.92286 15.2679 5.92286Z" fill="#93DDB7"/>
<path d="M39.6614 5.92286H20.9714C19.8827 5.92286 18.9971 5.03715 18.9971 3.94857C18.9971 2.85999 19.8827 1.97427 20.9714 1.97427H39.6614C40.7501 1.97427 41.6357 2.85999 41.6357 3.94857C41.6357 5.03715 40.7501 5.92286 39.6614 5.92286Z" fill="#F5F5F5"/>
<path d="M19.0144 29.1673C18.8302 29.1673 18.6432 29.1302 18.4635 29.0517C17.7661 28.7471 17.4477 27.9348 17.7524 27.2373L23.3321 14.4628C23.6367 13.7655 24.4489 13.4472 25.1465 13.7516C25.8439 14.0563 26.1623 14.8685 25.8577 15.566L20.278 28.3405C20.0517 28.8584 19.5456 29.1673 19.0144 29.1673V29.1673Z" fill="#048B1F"/>
<path d="M13.5027 28.6707C13.15 28.6707 12.7973 28.5362 12.5283 28.2672L7.3607 23.0996C6.82264 22.5614 6.82264 21.6889 7.3607 21.1507L12.4594 16.052C12.9975 15.5139 13.8701 15.5139 14.4082 16.052C14.9463 16.5902 14.9463 17.4628 14.4082 18.0009L10.284 22.1252L14.4772 26.3183C15.0153 26.8565 15.0153 27.729 14.4772 28.2672C14.2081 28.5362 13.8553 28.6707 13.5027 28.6707V28.6707Z" fill="#048B1F"/>
<path d="M30.1073 28.6707C30.46 28.6707 30.8127 28.5362 31.0817 28.2672L36.2493 23.0996C36.7874 22.5614 36.7874 21.6889 36.2493 21.1507L31.1506 16.052C30.6125 15.5139 29.7399 15.5139 29.2018 16.052C28.6637 16.5902 28.6637 17.4628 29.2018 18.0009L33.326 22.1252L29.1328 26.3183C28.5947 26.8565 28.5947 27.729 29.1328 28.2672C29.4019 28.5362 29.7547 28.6707 30.1073 28.6707V28.6707Z" fill="#048B1F"/>
</svg>
